<?xml version="1.0" standalone="no"?><svg xmlns="http://www.w3.org/2000/svg" viewBox="0 0 1440 320"><path fill="#0099ff" fill-opacity="1" d="M0,96L20,106.7C40,117,80,139,120,165.3C160,192,200,224,240,250.7C280,277,320,299,360,272C400,245,440,171,480,138.7C520,107,560,117,600,144C640,171,680,213,720,224C760,235,800,213,840,192C880,171,920,149,960,160C1000,171,1040,213,1080,208C1120,203,1160,149,1200,160C1240,171,1280,245,1320,250.7C1360,256,1400,192,1420,160L1440,128L1440,0L1420,0C1400,0,1360,0,1320,0C1280,0,1240,0,1200,0C1160,0,1120,0,1080,0C1040,0,1000,0,960,0C920,0,880,0,840,0C800,0,760,0,720,0C680,0,640,0,600,0C560,0,520,0,480,0C440,0,400,0,360,0C320,0,280,0,240,0C200,0,160,0,120,0C80,0,40,0,20,0L0,0Z"></path></svg>